<svg xmlns="http://www.w3.org/2000/svg" viewBox="0 0 512 512" role="img" aria-label="Эмблема управления Александрия"><title>Александрия — раскладка</title><!-- Розетка построена по мотиву мандалы-раскладки самого управления (alexandria/mandala.jpg): 112 эллипсов-лепестков, повторённых по кругу. --><defs><ellipse id="p0" cx="414.8" cy="256.0" rx="72.2" ry="22.9"/><ellipse id="p1" cx="361.9" cy="256.0" rx="77.0" ry="27.7"/><ellipse id="p2" cx="304.1" cy="256.0" rx="77.0" ry="26.5"/><ellipse id="p3" cx="256.0" cy="256.0" rx="101.1" ry="20.5"/></defs><g fill="none" stroke="#a9743b" stroke-width="3" stroke-linejoin="round"><use href="#p0"/><use href="#p0" transform="rotate(9 256 256)"/><use href="#p0" transform="rotate(18 256 256)"/><use href="#p0" transform="rotate(27 256 256)"/><use href="#p0" transform="rotate(36 256 256)"/><use href="#p0" transform="rotate(45 256 256)"/><use href="#p0" transform="rotate(54 256 256)"/><use href="#p0" transform="rotate(63 256 256)"/><use href="#p0" transform="rotate(72 256 256)"/><use href="#p0" transform="rotate(81 256 256)"/><use href="#p0" transform="rotate(90 256 256)"/><use href="#p0" transform="rotate(99 256 256)"/><use href="#p0" transform="rotate(108 256 256)"/><use href="#p0" transform="rotate(117 256 256)"/><use href="#p0" transform="rotate(126 256 256)"/><use href="#p0" transform="rotate(135 256 256)"/><use href="#p0" transform="rotate(144 256 256)"/><use href="#p0" transform="rotate(153 256 256)"/><use href="#p0" transform="rotate(162 256 256)"/><use href="#p0" transform="rotate(171 256 256)"/><use href="#p0" transform="rotate(180 256 256)"/><use href="#p0" transform="rotate(189 256 256)"/><use href="#p0" transform="rotate(198 256 256)"/><use href="#p0" transform="rotate(207 256 256)"/><use href="#p0" transform="rotate(216 256 256)"/><use href="#p0" transform="rotate(225 256 256)"/><use href="#p0" transform="rotate(234 256 256)"/><use href="#p0" transform="rotate(243 256 256)"/><use href="#p0" transform="rotate(252 256 256)"/><use href="#p0" transform="rotate(261 256 256)"/><use href="#p0" transform="rotate(270 256 256)"/><use href="#p0" transform="rotate(279 256 256)"/><use href="#p0" transform="rotate(288 256 256)"/><use href="#p0" transform="rotate(297 256 256)"/><use href="#p0" transform="rotate(306 256 256)"/><use href="#p0" transform="rotate(315 256 256)"/><use href="#p0" transform="rotate(324 256 256)"/><use href="#p0" transform="rotate(333 256 256)"/><use href="#p0" transform="rotate(342 256 256)"/><use href="#p0" transform="rotate(351 256 256)"/><use href="#p1"/><use href="#p1" transform="rotate(11.25 256 256)"/><use href="#p1" transform="rotate(22.5 256 256)"/><use href="#p1" transform="rotate(33.75 256 256)"/><use href="#p1" transform="rotate(45 256 256)"/><use href="#p1" transform="rotate(56.25 256 256)"/><use href="#p1" transform="rotate(67.5 256 256)"/><use href="#p1" transform="rotate(78.75 256 256)"/><use href="#p1" transform="rotate(90 256 256)"/><use href="#p1" transform="rotate(101.2 256 256)"/><use href="#p1" transform="rotate(112.5 256 256)"/><use href="#p1" transform="rotate(123.8 256 256)"/><use href="#p1" transform="rotate(135 256 256)"/><use href="#p1" transform="rotate(146.2 256 256)"/><use href="#p1" transform="rotate(157.5 256 256)"/><use href="#p1" transform="rotate(168.8 256 256)"/><use href="#p1" transform="rotate(180 256 256)"/><use href="#p1" transform="rotate(191.2 256 256)"/><use href="#p1" transform="rotate(202.5 256 256)"/><use href="#p1" transform="rotate(213.8 256 256)"/><use href="#p1" transform="rotate(225 256 256)"/><use href="#p1" transform="rotate(236.2 256 256)"/><use href="#p1" transform="rotate(247.5 256 256)"/><use href="#p1" transform="rotate(258.8 256 256)"/><use href="#p1" transform="rotate(270 256 256)"/><use href="#p1" transform="rotate(281.2 256 256)"/><use href="#p1" transform="rotate(292.5 256 256)"/><use href="#p1" transform="rotate(303.8 256 256)"/><use href="#p1" transform="rotate(315 256 256)"/><use href="#p1" transform="rotate(326.2 256 256)"/><use href="#p1" transform="rotate(337.5 256 256)"/><use href="#p1" transform="rotate(348.8 256 256)"/><use href="#p2"/><use href="#p2" transform="rotate(15 256 256)"/><use href="#p2" transform="rotate(30 256 256)"/><use href="#p2" transform="rotate(45 256 256)"/><use href="#p2" transform="rotate(60 256 256)"/><use href="#p2" transform="rotate(75 256 256)"/><use href="#p2" transform="rotate(90 256 256)"/><use href="#p2" transform="rotate(105 256 256)"/><use href="#p2" transform="rotate(120 256 256)"/><use href="#p2" transform="rotate(135 256 256)"/><use href="#p2" transform="rotate(150 256 256)"/><use href="#p2" transform="rotate(165 256 256)"/><use href="#p2" transform="rotate(180 256 256)"/><use href="#p2" transform="rotate(195 256 256)"/><use href="#p2" transform="rotate(210 256 256)"/><use href="#p2" transform="rotate(225 256 256)"/><use href="#p2" transform="rotate(240 256 256)"/><use href="#p2" transform="rotate(255 256 256)"/><use href="#p2" transform="rotate(270 256 256)"/><use href="#p2" transform="rotate(285 256 256)"/><use href="#p2" transform="rotate(300 256 256)"/><use href="#p2" transform="rotate(315 256 256)"/><use href="#p2" transform="rotate(330 256 256)"/><use href="#p2" transform="rotate(345 256 256)"/><use href="#p3"/><use href="#p3" transform="rotate(22.5 256 256)"/><use href="#p3" transform="rotate(45 256 256)"/><use href="#p3" transform="rotate(67.5 256 256)"/><use href="#p3" transform="rotate(90 256 256)"/><use href="#p3" transform="rotate(112.5 256 256)"/><use href="#p3" transform="rotate(135 256 256)"/><use href="#p3" transform="rotate(157.5 256 256)"/><use href="#p3" transform="rotate(180 256 256)"/><use href="#p3" transform="rotate(202.5 256 256)"/><use href="#p3" transform="rotate(225 256 256)"/><use href="#p3" transform="rotate(247.5 256 256)"/><use href="#p3" transform="rotate(270 256 256)"/><use href="#p3" transform="rotate(292.5 256 256)"/><use href="#p3" transform="rotate(315 256 256)"/><use href="#p3" transform="rotate(337.5 256 256)"/></g><circle cx="256" cy="256" r="6.2" fill="#a9743b"/></svg>